<?xml version="1.0" encoding="utf-8" ?><svg xmlns="http://www.w3.org/2000/svg" xmlns:xlink="http://www.w3.org/1999/xlink" width="1024" height="1024" viewBox="0 0 1024 1024"><path fill="white" d="M0 0L1024 0L1024 1024L0 1024L0 0Z"/><path fill="white" d="M196.196 321.003C210.364 320.224 232.354 320.88 247.103 320.838L337.095 320.604C376.937 319.9 405.522 348.099 405.46 387.892C405.417 415.1 405.498 442.42 405.485 469.639L405.475 507.774L405.476 542.054L405.538 586.175C405.547 590.704 405.806 604.669 405.048 608.179C404.988 622.317 396.812 638.511 386.929 648.441C377.831 657.485 366.29 663.674 353.724 666.248C343.156 668.476 329.869 667.985 318.875 667.989L279.809 667.998L138.929 668.097C117.892 668.065 101.396 664.406 85.965 648.733C65.1608 627.603 66.9654 605.301 67.0105 578.377L67.0197 477.767C66.9703 446.86 66.8217 415.71 66.9785 385.033C67.3567 347.17 97.8983 319.673 135.336 320.879C155.371 321.524 176.112 320.261 196.196 321.003Z"/><path fill="#FA8836" d="M67.0197 477.767L67.7462 477.459C68.9003 481.43 66.8242 503.249 69.0883 504.14C70.3514 504.637 71.8569 504.223 73.141 503.959C79.5524 502.639 100.766 511.031 103.832 507.132C104.864 499.838 102.881 486.749 104.417 479.857C104.585 500.312 104.639 520.767 104.577 541.223C104.579 547.334 105.009 566.803 104.443 571.826C104.57 590.625 102.715 606.04 117.284 620.413C131.728 634.663 146.239 633.036 164.976 633L200.128 632.927C240.543 632.866 281.004 632.786 321.423 632.679C333.615 632.646 341.324 630.552 351.607 623.826C372.757 606.131 369.022 587.672 368.929 562.519L370.238 563.773C371.678 564.102 380.947 555.504 382.812 553.702C389.04 547.682 395.169 544.924 402.931 541.569C403.681 540.521 403.765 540.193 404.828 539.519C405.015 540.502 405.2 541.093 405.476 542.054L405.538 586.175C405.547 590.704 405.806 604.669 405.048 608.179C404.988 622.317 396.812 638.511 386.929 648.441C377.831 657.485 366.29 663.674 353.724 666.248C343.156 668.476 329.869 667.985 318.875 667.989L279.809 667.998L138.929 668.097C117.892 668.065 101.396 664.406 85.965 648.733C65.1608 627.603 66.9654 605.301 67.0105 578.377L67.0197 477.767Z"/><path fill="#DDB53A" d="M368.929 562.519L370.238 563.773C371.678 564.102 380.947 555.504 382.812 553.702C389.04 547.682 395.169 544.924 402.931 541.569C403.681 540.521 403.765 540.193 404.828 539.519C405.015 540.502 405.2 541.093 405.476 542.054L405.538 586.175C405.547 590.704 405.806 604.669 405.048 608.179C404.889 605.232 404.831 602.774 404.854 599.822L404.507 599.776C404.374 601.951 404.46 606.106 403.171 607.652L402.595 607.533C402.204 605.885 402.113 605.04 401.209 603.581L399.91 603.424C400.114 602.05 399.982 602.576 400.842 601.328C397.2 600.771 396.778 603.634 393.457 599.708C389.707 595.274 386.292 596.896 381.385 596.976C381.28 595.948 381.295 595.854 380.848 594.897C377.839 595.533 370.917 597.12 368.806 598.952C366.576 606.614 360.223 621.795 351.607 623.826C372.757 606.131 369.022 587.672 368.929 562.519Z"/><path fill="#D2559D" d="M67.0197 477.767L67.7462 477.459C68.9003 481.43 66.8242 503.249 69.0883 504.14C70.3514 504.637 71.8569 504.223 73.141 503.959C79.5524 502.639 100.766 511.031 103.832 507.132C104.864 499.838 102.881 486.749 104.417 479.857C104.585 500.312 104.639 520.767 104.577 541.223C104.579 547.334 105.009 566.803 104.443 571.826C102.654 568.78 105.487 545.6 103.164 541.863C99.5136 540.354 76.2984 538.643 71.3513 538.745C69.2398 540.326 68.6784 540.277 68.2619 542.889C67.041 550.543 69.7775 572.254 67.0105 578.377L67.0197 477.767Z"/><path fill="#765AE3" d="M67.0197 477.767C66.9703 446.86 66.8217 415.71 66.9785 385.033C67.3567 347.17 97.8983 319.673 135.336 320.879C155.371 321.524 176.112 320.261 196.196 321.003C202.921 323.545 223.872 319.619 228.284 323.329C228.166 323.77 226.837 326.043 226.69 325.379C227.429 328.716 228.434 330.542 230.501 333.198C230.601 339.115 228.901 345.952 228.785 352.169C228.672 358.279 217.596 357.063 214.349 357.494C211.388 358.268 209.698 357.426 206.706 358.358C193.236 358.491 179.766 358.546 166.296 358.524C149.416 358.552 138.25 357.005 123.012 365.276C111.653 375.81 104.962 382.796 104.566 399.83C103.953 426.263 105.066 453.455 104.417 479.857C102.881 486.749 104.864 499.838 103.832 507.132C100.766 511.031 79.5524 502.639 73.141 503.959C71.8569 504.223 70.3514 504.637 69.0883 504.14C66.8242 503.249 68.9003 481.43 67.7462 477.459L67.0197 477.767Z"/><path fill="#3580FE" d="M123.012 365.276C125.485 361.602 134.622 358.294 138.984 357.91L138.364 358.061C145.819 357.891 153.62 357.949 161.01 357.389L157.831 357.097C163.971 355.618 183.472 356.224 190.422 356.679C198.944 357.236 205.763 356.476 214.349 357.494C211.388 358.268 209.698 357.426 206.706 358.358C193.236 358.491 179.766 358.546 166.296 358.524C149.416 358.552 138.25 357.005 123.012 365.276Z"/><path fill="#3AC5BC" d="M337.095 320.604C376.937 319.9 405.522 348.099 405.46 387.892C405.417 415.1 405.498 442.42 405.485 469.639L405.475 507.774L405.476 542.054C405.2 541.093 405.015 540.502 404.828 539.519C403.765 540.193 403.681 540.521 402.931 541.569C395.169 544.924 389.04 547.682 382.812 553.702C380.947 555.504 371.678 564.102 370.238 563.773L368.929 562.519C368.881 553.307 368.573 542.672 368.983 533.61C368.366 522.553 368.765 507.117 368.716 495.726L368.352 427.406C368.303 419.013 368.659 398.507 367.147 391.417C365.546 383.872 361.944 376.896 356.719 371.221C348.004 361.793 337.366 357.906 324.764 357.328C315.976 356.077 308.071 356.305 299.247 356.505C295.171 356.597 290.931 355.748 286.83 356.114C285.919 356.195 286.331 356.242 285.458 355.487C286.184 353.965 289.469 346.031 290.068 345.437L307.394 328.121C307.759 327.752 313.682 321.743 313.682 321.743C318.707 320.398 333.304 323.097 337.095 320.604Z"/><path fill="#A3BD60" d="M369.758 527.549C376.065 523.63 380.172 522.107 386.864 517.23C391.792 513.639 399.532 506.836 404.172 503.951C405.268 505.869 404.138 506.814 404.688 509.65L405.475 507.774L405.476 542.054C405.2 541.093 405.015 540.502 404.828 539.519C403.765 540.193 403.681 540.521 402.931 541.569C395.169 544.924 389.04 547.682 382.812 553.702C380.947 555.504 371.678 564.102 370.238 563.773L368.929 562.519C368.881 553.307 368.573 542.672 368.983 533.61C369.827 531.233 369.702 530.027 369.758 527.549Z"/><path fill="#5EC573" d="M405.485 469.639L405.475 507.774L404.688 509.65C404.138 506.814 405.268 505.869 404.172 503.951C399.532 506.836 391.792 513.639 386.864 517.23C380.172 522.107 376.065 523.63 369.758 527.549C369.702 530.027 369.827 531.233 368.983 533.61C368.366 522.553 368.765 507.117 368.716 495.726C369.955 502.63 369.691 513.377 369.746 520.731C379.823 517.365 395.733 504.541 404.255 497.455C404.205 489.136 403.543 477.356 405.485 469.639Z"/><path fill="#51A0F7" d="M196.196 321.003C210.364 320.224 232.354 320.88 247.103 320.838L337.095 320.604C333.304 323.097 318.707 320.398 313.682 321.743C313.682 321.743 307.759 327.752 307.394 328.121L290.068 345.437C289.469 346.031 286.184 353.965 285.458 355.487C286.331 356.242 285.919 356.195 286.83 356.114C290.931 355.748 295.171 356.597 299.247 356.505C308.071 356.305 315.976 356.077 324.764 357.328L240.251 358.136C229.595 358.198 217.206 358.645 206.706 358.358C209.698 357.426 211.388 358.268 214.349 357.494C217.596 357.063 228.672 358.279 228.785 352.169C228.901 345.952 230.601 339.115 230.501 333.198C228.434 330.542 227.429 328.716 226.69 325.379C226.837 326.043 228.166 323.77 228.284 323.329C223.872 319.619 202.921 323.545 196.196 321.003Z"/><defs><linearGradient id="gradient_0" gradientUnits="userSpaceOnUse" x1="305.64236" y1="387.56485" x2="320.54852" y2="450.13107"><stop offset="0" stop-color="#45C577"/><stop offset="1" stop-color="#0396C2"/></linearGradient></defs><path fill="url(#gradient_0)" d="M280.667 393.37C291.463 375.384 313.547 371.678 331.361 381.41C340.813 387.646 346.865 395.268 349.104 406.64C351.076 416.827 348.865 427.378 342.969 435.917C331.172 453.121 308.138 457.43 290.83 445.665C286.713 442.866 284.299 439.966 281.149 436.133C278.207 431.314 276.974 428.666 275.549 423.206C273.037 412.868 275.017 402.306 280.667 393.37Z"/><path fill="#5EC573" d="M280.667 393.37C291.463 375.384 313.547 371.678 331.361 381.41C327.482 382.419 325.902 385.955 322.35 387.78C313.136 392.512 298.964 400.85 288.351 396.909C285.471 395.84 283.604 393.451 280.667 393.37Z"/><path fill="white" d="M327.155 399.318C336.487 398.412 331.624 408.234 327.839 411.465C323.832 414.886 312.324 430.088 307.576 430.283C303.502 428.953 300.267 424.75 297.25 421.529C295.896 420.169 292.288 416.912 291.99 415.243C291.497 412.491 292.987 410.104 295.741 409.437C299.525 409.86 304.836 416.521 307.681 419.499C314.089 413.252 320.658 405.077 327.155 399.318Z"/><path fill="#3580FE" d="M238.317 481.973C256.702 490.477 266.209 489.328 285.443 490.227C308.189 491.29 323.809 517.32 313.06 537.819C308.068 548.102 300.033 554.766 289.288 558.495C284.294 560.178 279.098 561.193 273.838 561.512C254.675 562.824 233.55 558.774 226.828 582.713C223.064 580.193 218.455 579.268 214.011 580.139C219.123 559.121 235.376 550.021 256.205 548.847C271.48 547.986 291.68 549.953 300.759 533.715C303.004 529.699 304.311 521.322 302.633 516.869C295.545 498.064 274.632 504.861 259.414 502.191C247.876 500.226 242.265 498.575 232.159 493.467L233.707 491.472C236.279 488.018 236.984 485.924 238.317 481.973Z"/><path fill="#DFEFFD" d="M226.429 386.749C235.248 386.759 253.957 383.8 254.218 397.001C254.264 399.966 253.101 402.822 250.998 404.912C246.16 409.702 224.812 408.118 217.346 408.122L161.268 408.25C151.714 408.444 132.446 411.844 132.478 397.643C132.492 394.963 133.602 392.405 135.551 390.564C137.166 389.014 139.402 387.711 141.622 387.496C151.063 386.582 161.67 386.924 171.205 386.922L226.429 386.749Z"/><defs><linearGradient id="gradient_1" gradientUnits="userSpaceOnUse" x1="205.0688" y1="457.43469" x2="224.18658" y2="495.09833"><stop offset="0" stop-color="#EF50AA"/><stop offset="1" stop-color="#A14ACD"/></linearGradient></defs><path fill="url(#gradient_1)" d="M218.347 453.908C223.334 455.062 226.601 456.265 230.819 459.346C235.604 464.724 239.238 470.18 238.734 477.859C238.631 479.234 238.492 480.606 238.317 481.973C236.984 485.924 236.279 488.018 233.707 491.472L232.159 493.467C228.234 497.033 225.297 498.664 220.06 499.767C218.088 499.908 216.115 500.033 214.141 500.141C208.578 498.868 206.901 498.277 202.042 495.32C196.277 490.763 192.58 484.143 192.53 476.71C192.49 470.678 194.85 464.878 199.09 460.587C204.876 454.748 210.717 453.925 218.347 453.908Z"/><path fill="#765AE3" d="M220.06 499.767C218.195 498.862 218.172 499.236 217.421 497.774C218.677 491.831 228.526 486.554 233.707 491.472L232.159 493.467C228.234 497.033 225.297 498.664 220.06 499.767Z"/><defs><linearGradient id="gradient_2" gradientUnits="userSpaceOnUse" x1="144.97527" y1="564.69733" x2="165.24037" y2="529.56189"><stop offset="0" stop-color="#FF7E0D"/><stop offset="1" stop-color="#FEA31A"/></linearGradient></defs><path fill="url(#gradient_2)" d="M174.503 538.098C179.139 547.547 176.17 558.965 167.519 564.958C158.868 570.952 147.134 569.719 139.918 562.057C132.702 554.396 132.172 542.61 138.671 534.332C145.171 526.054 156.747 523.773 165.901 528.966C169.621 531.076 172.618 534.259 174.503 538.098Z"/><path fill="#DFEFFD" d="M294.459 589.142C302.469 588.646 331.859 587.756 337.723 590.441C339.868 591.423 341.809 593.019 342.581 595.315C343.33 597.542 342.66 600.027 341.653 602.06C340.186 605.021 338.049 606.126 335 607.06C327.199 607.738 296.646 608.886 290.8 606.021C288.831 605.057 286.944 603.388 286.326 601.213C285.617 598.718 286.401 596.004 287.691 593.84C289.255 591.217 291.586 589.92 294.459 589.142Z"/><path fill="#3AC5BC" d="M214.011 580.139C218.455 579.268 223.064 580.193 226.828 582.713C233.617 587.257 236.249 595.967 233.112 603.511C229.976 611.055 221.945 615.331 213.935 613.723C205.925 612.115 200.167 605.07 200.186 596.9C200.204 588.73 205.993 581.711 214.011 580.139Z"/><path fill="#51A0F7" d="M275.549 423.206C276.974 428.666 278.207 431.314 281.149 436.133C276.238 437.919 272.118 439.331 266.98 440.481C250.376 444.197 240.198 443.642 230.819 459.346C226.601 456.265 223.334 455.062 218.347 453.908C231.24 428.391 250.825 432.002 275.549 423.206Z"/><path fill="#51A0F7" d="M202.042 495.32C206.901 498.277 208.578 498.868 214.141 500.141C201.54 520.415 195.659 525.761 174.503 538.098C172.618 534.259 169.621 531.076 165.901 528.966C182.817 519.277 192.519 512.831 202.042 495.32Z"/><path fill="#0B1A37" d="M467.673 489.024L493.908 488.988C497.279 496.654 502.052 505.743 505.753 513.412C512.317 527.203 518.972 540.952 525.715 554.657C535.742 533.007 547.002 510.437 557.6 489.042C565.57 488.945 573.69 489.016 581.673 489.005L581.682 602.363C574.983 602.065 567.425 602.228 560.652 602.244L560.7 558.75C560.601 547.904 560.644 537.056 560.829 526.211C551.543 544.619 542.391 564.362 533.355 583.006L517.208 583.037C508.02 564.419 499.243 545.103 489.818 526.69C490.504 550.845 489.957 577.64 489.955 601.991L467.711 602.014L467.673 489.024Z"/><path fill="#3580FE" d="M827.001 634.206C837.786 633.88 851.866 634.379 861.712 634.126C895.955 633.244 906.406 633.692 904.12 671.65C903.135 688 908.02 705.216 883.441 706.903C871.497 707.056 857.233 706.833 845.77 707.003C820.86 707.491 803.136 709.015 804.963 677.175C806.082 657.672 798.644 636.039 827.001 634.206Z"/><path fill="white" d="M838.33 648.209C841.014 648.267 843.964 648.198 846.67 648.186C852.338 662.729 857.915 677.307 863.401 691.92L854.318 691.989C853.243 689.239 852.64 685.252 850.694 683.102C850.166 682.518 849.012 682.698 848.021 682.658L834.11 682.625L830.908 692.003L821.692 691.915C827.44 677.911 832.659 662.5 838.33 648.209Z"/><path fill="#3580FE" d="M842.291 658.881C843.426 660.026 847.458 672.444 848.251 674.74C846.943 675.313 846.144 675.128 844.625 675.146L836.628 675.122C838.465 669.691 840.353 664.277 842.291 658.881Z"/><path fill="white" d="M878.801 648.252C880.631 648.198 879.935 647.909 881.346 648.629C881.813 651.297 881.61 659.659 881.604 662.759L881.537 691.906L874.875 691.959C873.181 692.033 873.771 692.225 872.368 691.558C871.911 689.607 872.128 680.989 872.132 678.485L872.17 648.368L878.801 648.252Z"/><path fill="#0B1A37" d="M503.46 351.697C525.829 349.178 547.512 360.067 550.242 384.034L529.22 384.06C525.412 373.41 519.923 370.354 508.9 369.693C499.642 369.139 489.777 374.823 490.336 384.968C491.154 399.8 517.499 400.075 528.028 403.994C534.223 406.3 539.255 407.939 544.103 412.593C555.061 422.585 553.894 444.628 543.571 454.824C534.588 463.697 522.93 466.737 510.59 467.012C487.918 467.188 468.26 457.649 465.632 433.081L487.491 433.038C488.632 437.246 490.247 441.402 493.695 444.266C499.193 448.785 505.297 449.038 511.925 448.966C520.579 448.872 531.455 442.616 530.093 432.848C528.412 420.793 505.552 420.381 496.537 417.529C487.457 415.057 476.987 410.706 472.112 401.993C466.185 391.401 466.901 374.636 474.888 365.128C482.197 356.427 492.603 352.87 503.46 351.697Z"/><path fill="#0B1A37" d="M629.516 517.187C639.056 516.372 649.775 518.535 657.515 524.397C671.203 534.764 668.984 553.409 668.967 568.648L668.903 602.276C662.066 602.128 654.891 602.255 648.026 602.281L648.053 591.029C637.953 608.141 607.613 607.023 596.907 590.934C595.13 587.243 594.182 583.208 594.129 579.112C593.499 548.863 627.424 551.867 648.022 551.832C647.996 548.4 648.104 545.067 646.923 541.719C643.939 533.263 633.546 531.429 626.052 534.712C621.353 536.77 619.389 539.288 617.493 544.023L597.677 544C601.741 526.874 612.328 519.134 629.516 517.187Z"/><path fill="white" d="M646.203 565.737C647.37 565.737 646.814 565.579 647.85 566.282C648.255 568.632 647.55 572.544 646.729 574.748C644.891 579.705 641.036 583.65 636.122 585.602C630.394 587.921 625.068 587.554 619.495 585.162C610.327 577.278 615.444 566.205 627.056 565.845C633.432 565.647 639.819 565.8 646.203 565.737Z"/><path fill="#0B1A37" d="M821.194 489.013L842.041 488.994C841.976 502.501 841.994 516.008 842.095 529.515C855.407 510.039 888.235 513.444 894 537.439C895.879 545.263 895.145 557.024 895.135 565.288L895.162 602.316C888.25 602.141 881.335 602.149 874.423 602.342L874.405 567.314C874.479 555.551 876.188 535.753 859.124 535.636C854.665 535.576 850.368 537.307 847.195 540.441C845.106 542.543 843.646 545.186 842.979 548.074C841.562 554.015 841.952 564.957 841.958 571.42L842.022 602.299C835.092 602.151 828.159 602.173 821.23 602.365L821.194 489.013Z"/><path fill="#0B1A37" d="M562.506 353.007L583.018 352.994L583.021 416.928C592.731 406.36 603.811 395.43 613.906 385.112C622.193 384.885 630.908 385.12 639.304 384.965C628.668 395.884 618.089 406.857 607.568 417.886L629.265 448.85C633.046 454.581 637.496 460.698 641.447 466.38C633.349 465.966 624.356 466.178 616.176 466.216L592.928 432.385C589.597 435.684 586.291 439.008 583.01 442.357L583.024 466.248C576.183 466.154 569.34 466.169 562.499 466.293L562.506 353.007Z"/><path fill="#0B1A37" d="M771.495 517.198C792.33 515.922 807.631 525.541 812.933 545.947C805.878 546.044 798.682 545.987 791.615 546.004C790.251 542.917 787.372 537.812 784.12 536.767C764.258 530.384 755.557 544.4 756.042 562.027C756.524 579.576 766.471 590.378 784.27 583.919C788.316 582.45 790.646 577.147 791.895 573.412L799.319 573.451L813.298 573.45C811.758 579.591 810.242 584.295 806.42 589.484C793.683 606.748 765.537 607.99 749.307 595.491C727.092 578.382 729.53 533.626 755.693 521.339C761.179 518.762 765.492 517.806 771.495 517.198Z"/><path fill="#0B1A37" d="M707.335 498.155C708.794 497.885 708.812 497.754 710.194 498.179C710.859 500.276 710.507 515.925 710.479 518.991C716.876 518.959 723.273 518.979 729.67 519.054L729.649 536.652L710.457 536.539C710.574 549.926 710.08 563.411 710.613 576.782C711.043 587.551 721.869 585.89 729.568 584.992L729.581 601.149C726.489 601.703 722.425 602.068 719.231 602.439C718.672 602.451 718.113 602.458 717.555 602.46C689.925 602.625 688.749 586.254 689.455 564.109C689.735 555.32 689.505 545.426 689.535 536.554C685.077 536.587 680.62 536.644 676.164 536.727L676.165 519.054C680.561 518.969 685.105 519.019 689.515 519.008L689.469 501.156C694.237 500.672 702.383 499.009 707.335 498.155Z"/><path fill="#0B1A37" d="M721.019 353.01L743.042 352.993L743.055 433.189C743.057 437.822 743.365 462.974 742.786 466.269C735.529 466.14 728.271 466.143 721.015 466.277L721.019 353.01Z"/><path fill="#0B1A37" d="M686.033 353.01L706.874 353.005L706.857 428.043C706.858 439.721 707.421 455.105 706.747 466.317C699.845 466.096 692.931 466.217 686.026 466.275L686.033 353.01Z"/><path fill="#0B1A37" d="M650.653 385.037L671.975 385.02L671.929 466.251C664.916 466.115 657.671 466.214 650.639 466.23C651.268 439.986 650.707 411.456 650.653 385.037Z"/><path fill="#517790" d="M202.435 731.063C208.671 730.514 207.411 731.17 213.166 733.356C214.423 731.921 214.563 731.607 216.38 730.886C217.87 731.197 217.254 730.841 218.263 732.033C219.154 738.378 218.922 749.537 218.186 755.917C217.293 763.661 208.98 767.672 201.958 764.981C198.025 763.475 197.301 762.151 195.29 758.493C204.367 758.193 211.821 769.165 213.989 751.615C197.868 764.88 186.321 738.48 202.435 731.063Z"/><path fill="white" d="M206.105 734.55C209.923 734.995 212.172 736.19 213.373 740.035C214.153 742.541 213.899 745.256 212.668 747.575C211.353 750.052 209.892 750.693 207.348 751.457C203.647 751.071 201.372 750.069 200.121 746.235C199.305 743.714 199.532 740.972 200.753 738.62C202.117 735.961 203.404 735.438 206.105 734.55Z"/><path fill="#517790" d="M766.451 731.091C774.977 730.524 771.253 731.862 778.156 733.581C778.478 732.303 778.302 732.742 779.04 731.644C781.123 730.972 780.108 731.011 782.199 731.455C783.748 733.924 783.453 752.897 782.607 756.517C780.001 767.672 765.658 769.432 760.145 758.746C767.664 757.374 777.194 769.577 778.342 751.758C762.26 763.845 751.374 739.994 766.451 731.091Z"/><path fill="white" d="M770.101 734.502C779.495 734.372 781.631 747.323 772.948 751.162C761.928 751.141 761.236 738.94 770.101 734.502Z"/><path fill="#517790" d="M409.342 721.525C415.308 721.442 420.694 724.342 418.443 731.282C417.275 734.882 414.537 736.073 411.385 737.636C413.892 740.915 415.88 743.336 418.629 746.407C419.851 743.986 421.085 740.411 424.267 740.664L424.751 741.758C424.571 745.156 423.411 746.307 421.39 749.178L427.306 755.138C422.732 755.925 421.385 755.915 418.211 752.546C412.755 756.555 404.501 758.052 400.022 751.839C398.508 749.743 397.921 747.118 398.398 744.577C399.169 740.428 401.525 738.557 404.656 736.279C401.071 729.217 400.478 724.031 409.342 721.525Z"/><path fill="white" d="M406.902 739.83C407.714 740.367 413.954 748.155 415.414 749.814C414.013 750.881 412.688 751.469 411.125 752.262C402.609 753.192 400.978 745.553 406.902 739.83Z"/><path fill="white" d="M410.117 724.88C416.628 726.42 413.919 731.052 410.467 733.989C405.658 733.092 406.126 727.481 410.117 724.88Z"/><path fill="#517790" d="M808.818 731.081C833.39 728.468 822.768 767.443 804.795 753.192L804.086 753.672C803.991 757.386 805.54 761.9 802.268 763.925C800.519 764.016 800.558 764.302 799.26 763.573C798.375 755.767 799.295 743.593 799.004 735.404C798.91 732.777 798.935 732.415 800.387 731.042C803.751 730.851 802.694 732.468 804.775 733.814L808.818 731.081Z"/><path fill="white" d="M810.568 734.594C820.473 735.823 820.982 748.701 811.951 752.474C801.33 750.976 801.039 737.057 810.568 734.594Z"/><path fill="#517790" d="M901.49 731.095C903.982 730.917 906.515 730.634 908.931 731.374C912.054 732.343 914.637 734.563 916.062 737.507C919.724 745.121 916.459 752.424 908.974 755.814C906.176 756.054 903.665 756.39 900.962 755.381C898.069 754.284 895.731 752.081 894.463 749.259C891.114 741.809 894.089 734.393 901.49 731.095Z"/><path fill="white" d="M903.474 734.498C914.473 734.265 915.43 747.513 907.532 752.288C896.083 752.63 895.158 739.543 903.474 734.498Z"/><path fill="#0B1A37" d="M659.676 351.175C666.079 350.284 672.009 354.703 672.988 361.093C673.966 367.483 669.63 373.473 663.254 374.54C659.051 375.243 654.794 373.629 652.114 370.316C649.434 367.002 648.744 362.503 650.31 358.539C651.876 354.575 655.455 351.761 659.676 351.175Z"/><path fill="#517790" d="M596.904 731.045C603.708 730.447 602.368 732.386 606.364 733.751C609.855 731.844 614.055 730.165 618.028 731.179C623.608 732.603 623.744 750.998 621.894 755.476L620.435 755.588C614.8 753.007 620.736 739.895 616.93 736.623C607.803 728.774 607.63 742.984 607.627 746.875C607.651 749.042 608.039 754.23 606.877 755.549C598.63 755.911 606.109 742.147 601.071 735.788C588.769 728.691 595.379 751.288 591.737 755.313C589.781 755.897 590.788 755.798 588.586 755.333C587.564 753.985 587.939 736.369 587.949 733.532C587.955 731.737 588.222 731.907 589.265 731.06C591.306 731.177 591.744 731.795 593.143 733.339L596.904 731.045Z"/><path fill="#517790" d="M946.952 731.059C949.916 730.836 951.809 730.379 954.013 732.391C954.235 732.766 956.669 734.185 956.937 733.968C965.775 726.816 973.355 731.724 973.242 742.65C973.201 746.586 973.704 750.836 972.662 754.911C971.338 755.612 970.899 755.324 969.18 755.305C967.637 753.563 970.212 739.222 967.225 736.636C957.958 728.609 957.974 743.169 958.024 747.61C958.138 750.757 958.845 754.402 955.573 756.142C949.272 752.698 958.806 733.75 946.799 734.49C940.1 737.877 944.95 752.206 942.049 755.852C940.156 756.07 938.165 754.563 938.087 752.761C937.821 746.684 938.642 740.525 937.971 734.437C937.817 733.036 938.216 732.509 939.088 731.631C940.868 731.317 940.83 731.263 942.71 731.578C943.043 732.62 942.958 732.303 943.166 733.119L943.293 733.63L946.952 731.059Z"/><path fill="#517790" d="M540.462 731.063C543.573 730.822 546.453 730.764 549.345 732.184C552.895 733.928 556.408 739.988 554.357 743.714C549.455 746.768 539.9 741.756 537.244 745.942C537.81 753.463 544.889 753.342 550.081 749.964L550.802 749.162C552.681 748.615 551.782 748.57 553.591 749.29C555.19 755.477 543.497 757.255 539.51 755.388C528.64 750.298 529.357 735.751 540.462 731.063Z"/><path fill="white" d="M541.45 734.521C541.965 734.495 542.481 734.479 542.997 734.471C546.339 734.435 550.007 736.522 549.984 740.116C548.608 741.295 548.938 740.909 546.625 740.981C544.843 741.038 543.06 741.067 541.278 741.067C539.649 741.054 538.666 740.949 537.506 739.751L537.634 738.431C539.096 736.312 539.39 736.163 541.45 734.521Z"/><path fill="#517790" d="M232.574 731.05C234.436 730.92 236.369 730.732 238.206 731.148C243.162 732.27 248.125 738.418 246.6 743.61C244.504 745.215 232.216 744.517 228.457 744.504C230.058 752.474 235.844 755.072 242.233 749.61C242.341 749.478 243.19 749.001 243.37 748.894C244.992 748.854 244.273 748.657 245.628 749.417C246.18 755.941 234.988 757.354 230.796 755.218C220.177 749.805 221.318 735.189 232.574 731.05Z"/><path fill="white" d="M233.115 734.544C234.658 734.461 236.924 734.195 238.213 735.156C240.05 736.525 243.111 738.335 241.279 740.835L239.125 740.991C235.895 741.018 232.711 741.417 229.817 740.297C227.979 737.936 231.326 735.95 233.115 734.544Z"/><path fill="#517790" d="M843.863 731.101C854.597 730.312 857.513 734.203 857.376 745.019C857.332 748.504 857.364 751.757 856.555 755.208C854.49 755.591 854.317 755.656 852.269 755.409L851.894 753.094C847.024 753.427 843.702 761.156 836.595 752.069C833.519 740.268 848.536 743.63 852 739.683C852.264 736.959 850.52 735.021 848.067 734.038C845.012 733.93 843.209 736.706 840.706 738.899C838.696 739.353 839.621 739.453 837.821 738.769C835.969 735.14 841.173 732.278 843.863 731.101Z"/><path fill="white" d="M846.742 745.169C848.362 744.99 849.407 744.737 850.979 745.182C853.632 748.446 849.121 751.297 846.448 752.538C843.706 752.368 842.688 752.327 841.256 749.86C841.234 746.261 843.877 745.739 846.742 745.169Z"/><path fill="#517790" d="M513.946 731.079C516.838 730.845 519.547 730.742 522.292 731.893C526.265 733.559 529.987 739.564 527.932 743.694C522.988 746.619 512.794 741.826 510.636 746.11C511.673 753.273 518.483 753.651 523.725 750.043C524.996 748.51 525.409 748.68 527.058 749.217C528.967 755.973 517.432 756.991 512.881 755.268C509.989 754.166 507.682 751.918 506.506 749.056C503.345 741.573 506.562 734.229 513.946 731.079Z"/><path fill="white" d="M514.907 734.505C516.533 734.438 518.873 734.164 520.193 735.216C522.031 736.681 525.08 738.365 523.042 740.851L520.625 740.983C518.017 741.056 512.849 741.715 511.03 739.741C511.269 737.111 512.799 736.267 514.907 734.505Z"/><path fill="#517790" d="M141.907 731.104C152.537 730.416 156.367 733.967 156.697 744.504C152.178 744.571 142.708 743.783 138.979 744.902L138.655 745.572C139.417 751.779 145.385 753.998 150.726 750.732C152.158 749.442 153.008 748.637 155.003 749.153C157.57 754.749 146.358 757.168 141.283 755.373C138.404 754.372 136.063 752.229 134.811 749.449C131.363 741.931 134.536 734.508 141.907 731.104Z"/><path fill="white" d="M142.863 734.555C146.442 734.305 150.218 734.756 151.822 739.31C152.089 740.066 151.759 740.156 151.275 740.841L149.125 740.986L138.226 740.943C139.856 737.674 140.089 736.988 142.863 734.555Z"/><path fill="#517790" d="M472.381 731.115L472.844 731.085C483.661 730.47 486.186 734.616 486.068 745.389C486.046 747.392 486.241 754.021 484.889 755.358C483.008 755.478 482.484 755.851 481.122 755.087L480.892 753.043C477.347 752.884 472.556 761.119 465.667 752.545C461.901 741.104 474.466 743.44 480.026 740.512C481.411 738.365 480.197 735.586 478.137 734.449C474.195 732.273 471.317 738.214 468.228 739.188C466.331 738.823 466.998 739.304 465.977 737.984C466.011 734.379 469.531 732.354 472.381 731.115Z"/><path fill="white" d="M480.469 744.741C481.848 746.448 479.87 749.498 478.312 750.593C475.567 752.523 474.975 752.738 471.692 752.242C469.94 750.163 469.343 749.626 470.596 747.099C473.583 744.896 476.753 745.04 480.469 744.741Z"/><path fill="#517790" d="M633.96 731.101C645.543 730.376 647.653 734.982 647.375 746.188C647.319 748.428 647.385 753.388 646.397 755.326C644.39 755.46 643.967 755.845 642.506 755.033L642.275 753.047C638.094 753.03 633.449 761.631 626.566 751.665C625.214 737.79 641.771 744.958 642.425 738.318C638.745 730.237 632.764 737.158 627.828 739.53L627.139 738.631C628.195 733.846 629.309 732.871 633.96 731.101Z"/><path fill="white" d="M636.643 745.185C638.301 745.018 639.646 744.682 641.146 745.304C643.592 748.753 639.264 751.394 636.481 752.658C633.943 752.469 632.701 752.333 631.373 749.909C631.341 746.186 633.571 745.88 636.643 745.185Z"/><path fill="#517790" d="M330.772 720.544C332.887 720.47 333.348 720.393 335.372 720.839C335.998 723.483 335.709 738.106 335.693 741.666L345.276 731.471C346.904 731.385 348.392 731.125 349.87 731.71L350.034 732.477C349.355 733.989 343.492 739.648 341.939 741.306L348.629 750.656C349.831 752.301 351.152 753.898 352.431 755.488L346.289 755.495C344.552 753.339 340.072 746.287 338.038 745.581C334.233 747.466 337.003 752.66 334.403 755.829C332.489 756.26 333.49 756.237 331.312 755.346C330.318 753.751 330.789 725.462 330.772 720.544Z"/><path fill="#517790" d="M695.54 734.941C695.47 732.158 694.64 722.272 696.396 720.643C698.735 720.616 698.359 720.235 699.678 721.401C700.524 723.965 700.094 727.819 699.986 730.656L700.203 733.091C703.244 733.325 708.355 727.253 714.037 733.506C717.483 737.298 718.198 751.398 716.264 755.07C714.516 755.62 714.529 755.535 712.791 755.301C709.27 752.042 716.863 734.518 705.995 734.74C695.841 734.948 702.64 753.179 698.956 755.651C696.861 755.607 697.794 755.892 696.039 754.802C694.961 753.168 695.391 737.864 695.54 734.941Z"/><path fill="#386483" d="M695.54 734.941C695.47 732.158 694.64 722.272 696.396 720.643C698.735 720.616 698.359 720.235 699.678 721.401C700.524 723.965 700.094 727.819 699.986 730.656C698.791 727.69 699.772 722.786 698.408 721.66C695.858 723.178 697.996 731.074 695.54 734.941Z"/><path fill="#517790" d="M99.4294 731.073C104.233 730.754 109.132 730.963 110.748 736.437C111.588 739.282 112.083 753.137 111.055 755.276C109.498 755.674 109.554 755.583 107.947 755.263C104.049 750.407 112.305 736.028 100.065 734.579C91.1111 738.975 96.9517 751.08 94.672 755.171C92.6103 755.387 92.4005 755.474 90.4343 754.993C89.6941 751.013 90.0673 736.966 90.3694 732.156C90.4067 731.563 90.9194 731.528 91.6428 731.174C96.3723 732.931 94.9987 733.84 99.4294 731.073Z"/><path fill="#517790" d="M261.524 731.043C271.115 730.42 273.017 734.856 273.293 744.146C273.404 747.882 273.226 751.455 272.622 755.166C270.517 755.715 271.443 755.831 269.682 755.312C265.717 750.739 273.506 734.181 261.487 734.885L260.918 734.924C253.207 739.731 258.952 750.899 256.481 755.125C254.347 755.483 254.374 755.444 252.199 755.164C252.139 754.582 252.089 754 252.05 753.416C251.894 750.723 251.586 732.538 252.483 731.555C258.648 731.035 255.74 731.762 257.046 733.775C258.528 732.847 260.021 731.937 261.524 731.043Z"/><path fill="#517790" d="M738.246 755.541C736.452 755.534 735.899 755.584 734.106 755.159C733.292 753.986 733.534 734.526 733.803 731.806C735.843 731.3 736.029 731.353 738.167 731.498C738.377 732.299 738.451 732.844 738.511 733.655C742.506 732.834 749.867 726.319 754.103 736.12C755.368 739.046 755.352 752.087 754.124 754.799C752.673 756.051 753.471 755.761 751.746 755.927C748.566 753.602 752.125 738.313 748.588 736.138C736.42 728.656 738.475 749.489 738.426 752.515L738.246 755.541Z"/><path fill="#386483" d="M738.246 755.541L736.832 754.866C736.465 750.035 736.874 746.998 737.498 742.245C738.044 744.27 738.204 749.958 738.426 752.515L738.246 755.541Z"/><path fill="#517790" d="M312.491 731.063C312.928 731.036 313.366 731.015 313.804 731.001C318.195 730.832 325.671 731.571 325.793 737.495L325.032 738.17C319.873 738.39 320.246 734.981 316.058 733.963C313.955 733.451 311.127 736.063 310.876 738.245C313.731 742.596 325.165 741.359 326.833 747.28C328.37 752.733 323.156 755.008 319.127 755.956C314.838 756.168 308.852 755.491 306.379 751.488C306.182 749.562 305.925 750.345 306.737 748.953C311.693 748.976 317.913 756.46 322.304 749.875C322.315 743.651 302.636 745.939 306.597 735.768C307.687 732.971 309.878 732.152 312.491 731.063Z"/><path fill="#517790" d="M677.528 731.066C683.034 730.684 688.841 731 691.27 736.871C691.138 738.656 691.504 737.97 690.325 739.09C686.854 739.181 686.272 736.833 683.543 734.979C681.207 733.031 676.223 735.307 675.138 737.828C671.516 746.242 675.258 754.983 685.267 751.23C686.982 749.062 687.301 748.268 690.122 748.091L690.895 748.807C691.486 755.706 680.51 757.675 675.761 755.191C665.53 749.841 666.538 735.237 677.528 731.066Z"/><path fill="#517790" d="M448.513 731.07C451.728 730.817 456.048 730.67 458.74 732.703C460.621 734.124 463.439 736.379 461.705 738.791C457.013 739.987 455.441 733.361 451.339 734.121C445.68 735.247 443.78 742.149 445.221 747.041C446.848 752.563 451.301 753.093 456.072 751.346C457.769 749.434 458.96 747.311 461.699 748.508C461.854 749.303 462.139 749.895 461.707 750.587C453.481 763.765 434.466 752.496 440.95 737.96C442.764 733.892 444.415 732.735 448.513 731.07Z"/><path fill="#517790" d="M886.195 755.539C884.12 755.465 883.99 755.799 882.523 754.845C879.699 748.431 884.58 739.236 881.028 735.293L878.16 735.226L877.596 734.298C877.643 732.584 877.318 732.346 878.206 731.455C879.586 731.469 879.96 731.477 881.313 731.266C883.157 728.92 880.939 722.993 885.583 721.384C888.199 720.478 891.156 718.555 892.729 721.866C891.106 725.138 884.426 725.515 886.77 730.608C888.213 731.872 890.247 731.521 892.26 732.16C892.809 733.664 892.676 732.862 892.061 734.74C890.497 735.434 888.372 735.148 886.508 735.126C886.548 740.317 886.519 745.508 886.421 750.698C886.437 752.551 886.51 753.723 886.195 755.539Z"/><path fill="#386483" d="M886.195 755.539C885.272 755.185 885.741 755.432 884.819 754.74C884.837 750.9 884.704 745.641 885.627 741.973C886.093 743.178 886.279 748.992 886.421 750.698C886.437 752.551 886.51 753.723 886.195 755.539Z"/><path fill="#517790" d="M281.416 724.009C283.006 723.938 283.641 723.809 285.184 724.292C286.655 726.262 286.103 728.683 286.004 731.399C287.899 731.383 288.712 731.347 290.559 731.652C291.971 732.789 291.553 732.096 292.028 733.686L291.249 734.709C289.662 735.595 287.873 735.234 286.001 735.11C285.924 739.334 284.989 748.808 287.865 751.655C290.892 751.816 291.213 751.426 292.442 754.18C291.753 755.229 291.902 755.016 291.017 755.899C275.363 757.832 283.801 741.766 281.084 735.356C280.113 735.175 279.822 735.187 278.857 735.212L277.884 735.242C274.499 731.675 279.413 731.685 280.759 730.676C281.828 728.594 281.476 726.437 281.416 724.009Z"/><path fill="#517790" d="M119.554 724.009C121.116 723.944 121.92 723.782 123.388 724.35C124.781 726.33 124.198 728.85 124.051 731.477C126.694 731.395 128.726 730.726 130.114 733.251L129.508 734.41C127.943 735.546 126.09 735.249 124.09 735.228C123.997 739.412 123.036 748.802 125.892 751.619C129.154 751.901 129.307 751.438 130.603 754.383C128.903 756.516 127.651 756.246 125.037 756.029C115.357 755.223 121.675 741.788 119.107 736.212C118.436 734.757 116.823 735.883 115.417 734.181C115.346 732.195 114.982 732.727 115.806 731.513C116.977 731.433 118.045 731.392 119.214 731.355C119.837 730.011 119.573 725.741 119.554 724.009Z"/><path fill="#517790" d="M864.76 724.035C867.038 724.032 867.213 723.674 868.941 724.615C869.899 726.363 869.383 729.307 869.234 731.443L870.763 731.461C873.262 731.467 874.033 730.986 875.173 733.435L874.545 734.498C872.941 735.587 871.308 735.296 869.316 735.257C869.413 739.022 868.431 749.09 870.481 751.549C871.575 751.861 871.879 751.907 872.983 751.992L873.973 752.064C875.479 753.275 875.001 752.784 875.487 755.149C875.08 755.451 874.687 755.835 874.169 755.92C859.514 758.319 866.669 742.957 864.624 735.836C863.382 734.811 863.036 735.207 860.944 735.204L860.411 734.506C860.425 732.69 860.106 732.667 860.987 731.499C862.271 731.479 863.124 731.434 864.402 731.308C865.164 729.564 864.802 726.174 864.76 724.035Z"/><path fill="#517790" d="M659.587 734.895C659.256 737.629 659.087 748.457 659.852 750.806C661.378 752.155 662.795 751.632 664.84 752.288L665.227 753.253C664.725 755.338 665.243 754.513 663.733 755.887C661.898 756.391 661.967 756.386 660.107 756.113C650.583 754.712 657.185 739.476 654.352 735.271C652.483 735.257 651.823 735.677 650.665 734.349C650.442 732.377 650.163 733.101 650.866 731.633C652.388 731.567 652.607 731.618 654.102 731.166C656.146 728.635 653.729 725.917 656.924 723.458C660.493 724.596 659.502 729.08 659.231 731.944C660.98 731.58 662.089 731.168 663.81 731.614C665.203 732.831 664.84 732.106 665.145 733.744C663.358 736.053 662.427 735.338 659.587 734.895Z"/><path fill="#517790" d="M659.231 731.944C660.98 731.58 662.089 731.168 663.81 731.614C665.203 732.831 664.84 732.106 665.145 733.744C663.358 736.053 662.427 735.338 659.587 734.895L660.153 733.894L661.039 733.671L660.984 733.287C659.726 733.09 660.343 733.292 659.231 731.944Z"/><path fill="#517790" d="M161.997 720.557C164.063 720.47 164.793 720.287 166.678 720.974C167.388 723.5 167.052 751.212 167.04 755.513C165.415 755.498 163.397 755.749 162.196 754.858C161.484 748.721 161.971 727.664 161.997 720.557Z"/><path fill="#517790" d="M827.151 720.558C828.94 720.505 830.315 720.253 831.875 721.048C832.412 724.609 832.393 751.76 831.912 755.552C830.104 755.562 829.171 755.689 827.441 755.097C826.645 752.144 827.189 725.327 827.151 720.558Z"/><path fill="#517790" d="M377.973 720.515C379.804 720.464 380.83 720.301 382.58 720.892C383.427 723.66 382.854 750.885 382.851 755.467C381.252 755.497 379.366 755.754 378.179 754.871C377.463 748.757 377.947 727.607 377.973 720.515Z"/><path fill="#386483" d="M173.583 720.523C175.355 720.499 176.602 720.315 178.223 721.005C178.678 724.946 178.529 732.133 178.489 736.262C178.431 742.273 178.712 749.542 178.352 755.461C176.692 755.46 175.189 755.705 173.888 754.818C173.396 752.171 173.744 747.509 173.692 744.632C173.553 737.006 174.055 728.716 173.622 721.146L173.583 720.523Z"/><path fill="#517790" d="M366.914 720.5C368.576 720.485 369.82 720.314 371.343 720.95C371.846 724.492 371.598 730.327 371.59 734.084L371.574 755.504C369.693 755.506 369.165 755.455 367.295 755.188C366.435 753.087 366.902 724.708 366.914 720.5Z"/><path fill="#517790" d="M499.871 731.054C501.482 730.833 501.826 730.675 503.43 731.007C504.27 732.426 503.985 732.13 503.944 734.07C489.449 739.326 499.126 744.665 495.558 754.713C494.08 755.947 494.124 755.51 491.628 755.555C490.561 754.483 490.581 732.936 491.498 731.598C493.588 731.338 493.565 731.269 495.58 731.697C495.623 732.938 495.548 732.59 495.896 733.783L496.805 733.608C497.994 732.237 498.406 732.036 499.871 731.054Z"/><path fill="#517790" d="M570.701 730.416C571.781 730.824 571.4 730.683 572.269 731.663C572.422 732.837 572.382 732.758 571.84 733.827C570.465 734.552 565.351 737.3 564.829 738.379C562.174 743.875 566.122 749.13 563.493 754.775C561.671 755.902 561.64 755.481 559.07 755.462C559.056 750.589 558.724 735.838 559.495 731.535C561.002 730.945 560.414 731.118 562.151 731.185C563.796 732.293 563.144 731.575 563.98 733.577C566.436 733.508 566.174 731.503 570.701 730.416Z"/><path fill="#517790" d="M932.478 730.466C933.255 730.637 933.392 730.782 934.118 731.141C934.739 732.646 934.674 731.844 933.932 733.639C932.516 734.459 927.954 737.114 927.239 738.172C923.928 743.075 928.316 749.272 925.469 754.884C923.709 755.892 923.616 755.505 921.22 755.469C921.165 751.466 920.825 734.696 921.68 731.493C923.715 731.25 923.727 731.267 925.768 731.56L926.083 733.089L926.673 733.427C928.987 731.84 929.733 731.193 932.478 730.466Z"/><path fill="#517790" d="M79.3423 721.514C81.0285 721.481 82.1088 721.305 83.6553 721.977C84.2113 725.006 83.9267 750.471 83.9344 755.482C82.2336 755.523 81.144 755.693 79.5513 755.081C79.1538 752.603 79.3339 746.316 79.3391 743.588L79.3423 721.514Z"/><path fill="#517790" d="M355.009 731.453C356.736 731.419 358.549 731.23 359.877 732.071C360.494 737.192 360.109 749.815 360.078 755.503C358.23 755.533 357.158 755.692 355.41 755.056C354.759 752.911 355.003 735.113 355.009 731.453Z"/><path fill="#517790" d="M184.953 731.43C187.004 731.365 187.79 731.186 189.663 731.871C190.27 733.887 189.957 751.952 189.933 755.486C188.39 755.49 186.351 755.716 185.162 754.928C184.55 750.099 184.928 736.887 184.953 731.43Z"/><path fill="#517790" d="M722.278 731.43C724.098 731.376 725.091 731.199 726.798 731.861C727.462 735.015 727.163 751.111 727.149 755.475C725.386 755.499 724.154 755.685 722.543 754.991C721.971 752.253 722.263 735.451 722.278 731.43Z"/><path fill="#517790" d="M186.326 720.272C187.843 719.652 189.578 720.358 190.231 721.862C190.884 723.365 190.215 725.115 188.726 725.801C187.734 726.258 186.572 726.142 185.689 725.498C184.807 724.854 184.342 723.783 184.474 722.698C184.606 721.614 185.314 720.686 186.326 720.272Z"/><path fill="#517790" d="M356.542 720.237C358.076 719.668 359.783 720.431 360.38 721.954C360.977 723.477 360.244 725.198 358.732 725.822C357.73 726.236 356.582 726.077 355.73 725.405C354.879 724.734 354.456 723.655 354.624 722.584C354.792 721.512 355.526 720.615 356.542 720.237Z"/><path fill="#517790" d="M723.736 720.285C725.22 719.706 726.895 720.406 727.526 721.868C728.157 723.33 727.516 725.029 726.076 725.71C725.1 726.173 723.948 726.065 723.074 725.43C722.199 724.795 721.741 723.733 721.879 722.661C722.017 721.589 722.729 720.678 723.736 720.285Z"/></svg>